<?xml version="1.0" standalone="no"?>
<!DOCTYPE svg PUBLIC "-//W3C//DTD SVG 20010904//EN"
 "http://www.w3.org/TR/2001/REC-SVG-20010904/DTD/svg10.dtd">
<svg version="1.0" xmlns="http://www.w3.org/2000/svg"
 width="107.000000pt" height="107.000000pt" viewBox="0 0 107.000000 107.000000"
 preserveAspectRatio="xMidYMid meet">

<g transform="translate(0.000000,107.000000) scale(0.100000,-0.100000)"
fill="#000000" stroke="none">
<path d="M751 819 c-17 -17 -31 -35 -31 -40 0 -5 -125 -9 -305 -9 l-305 0 0
-60 0 -60 309 0 c287 0 311 -1 323 -18 54 -74 164 -68 204 11 l16 30 -37 -7
c-20 -4 -42 -9 -49 -12 -6 -2 -25 9 -41 26 -26 27 -28 33 -19 67 9 38 23 46
104 62 3 1 -6 10 -20 21 -17 13 -41 20 -72 20 -39 0 -52 -5 -77 -31z m114 1
c-3 -5 -14 -10 -24 -10 -24 0 -36 -16 -48 -67 -10 -40 -9 -43 26 -77 32 -32
42 -36 72 -30 l34 5 -24 -20 c-40 -36 -115 -22 -146 26 l-15 23 -305 0 -305 0
0 40 0 40 300 0 299 0 16 30 c8 16 23 34 32 39 23 14 96 14 88 1z"/>
<path d="M854 772 c-6 -4 -14 -19 -17 -33 -9 -35 27 -69 62 -60 35 9 49 56 25
82 -17 19 -50 25 -70 11z m55 -26 c15 -18 4 -46 -18 -46 -27 0 -42 20 -30 42
12 21 32 23 48 4z"/>
<path d="M325 511 c-64 -11 -130 -46 -174 -91 -36 -38 -41 -48 -41 -90 0 -54
9 -65 65 -76 22 -4 51 -15 64 -25 31 -24 62 -24 94 1 23 18 40 20 197 20 157
0 174 -2 197 -20 33 -25 75 -26 98 0 12 13 33 20 68 22 l52 3 7 40 c5 30 2 46
-10 64 -17 24 -83 53 -146 65 -19 4 -70 27 -113 51 l-78 45 -120 -1 c-66 -1
-138 -5 -160 -8z m352 -54 c34 -21 95 -47 135 -58 102 -28 118 -40 118 -89 0
-40 0 -40 -40 -40 -36 0 -40 3 -40 25 0 62 -90 89 -129 39 -12 -15 -21 -35
-21 -45 0 -18 -11 -19 -170 -19 -165 0 -170 1 -170 20 0 29 -44 70 -75 70 -31
0 -75 -41 -75 -70 0 -22 -15 -25 -54 -10 -22 8 -26 16 -26 49 0 33 7 47 37 77
38 38 104 72 163 85 19 4 91 7 160 6 l125 -2 62 -38z m-355 -134 c34 -31 11
-93 -35 -93 -27 0 -57 28 -57 53 0 48 56 73 92 40z m496 5 c30 -30 1 -98 -41
-98 -27 0 -57 28 -57 53 0 45 67 76 98 45z"/>
</g>
</svg>
